<svg width="15" height="14" viewBox="0 0 15 14" fill="none" xmlns="http://www.w3.org/2000/svg">
    <path
        d="M7.99 1.09001L9.58 4.30001C9.61617 4.38149 9.67305 4.45206 9.74499 4.5047C9.81693 4.55733 9.90141 4.5902 9.99 4.60001L13.5 5.12001C13.6016 5.13307 13.6974 5.17478 13.7763 5.24027C13.8551 5.30575 13.9136 5.39231 13.9451 5.48982C13.9765 5.58734 13.9796 5.6918 13.9539 5.79099C13.9282 5.89019 13.8748 5.98002 13.8 6.05001L11.27 8.56001C11.2054 8.62034 11.157 8.69585 11.129 8.77969C11.1011 8.86352 11.0945 8.95301 11.11 9.04001L11.72 12.57C11.7377 12.6714 11.7265 12.7758 11.6878 12.8712C11.6491 12.9666 11.5843 13.0492 11.501 13.1096C11.4176 13.1701 11.319 13.2059 11.2163 13.213C11.1136 13.2202 11.0109 13.1983 10.92 13.15L7.76 11.48C7.67909 11.4403 7.59014 11.4196 7.5 11.4196C7.40986 11.4196 7.32092 11.4403 7.24 11.48L4.08 13.15C3.98909 13.1983 3.88644 13.2202 3.78373 13.213C3.68102 13.2059 3.58237 13.1701 3.49902 13.1096C3.41566 13.0492 3.35094 12.9666 3.31222 12.8712C3.2735 12.7758 3.26234 12.6714 3.28 12.57L3.89 9.00001C3.90546 8.91301 3.89892 8.82352 3.87098 8.73969C3.84303 8.65585 3.79457 8.58034 3.73 8.52001L1.17 6.05001C1.09427 5.97811 1.041 5.88578 1.01667 5.78423C0.992331 5.68267 0.997966 5.57623 1.03289 5.47781C1.06781 5.37939 1.13053 5.29321 1.21343 5.2297C1.29634 5.1662 1.39588 5.12809 1.5 5.12001L5.01 4.60001C5.0986 4.5902 5.18308 4.55733 5.25502 4.5047C5.32695 4.45206 5.38384 4.38149 5.42 4.30001L7.01 1.09001C7.0533 0.99652 7.12244 0.917367 7.20927 0.861895C7.29609 0.806423 7.39697 0.776947 7.5 0.776947C7.60303 0.776947 7.70392 0.806423 7.79074 0.861895C7.87756 0.917367 7.9467 0.99652 7.99 1.09001V1.09001Z"
        stroke="#FFD835" stroke-linecap="round" stroke-linejoin="round" />
</svg>
    